HIERARCHY
ROOT root
{
	OFFSET	0	13.1	24.9
	CHANNELS 6  Xposition Yposition Zposition Xrotation Yrotation Zrotation
	JOINT spine_1
	{
		OFFSET	0	9.99999	0
		CHANNELS 3  Xrotation Yrotation Zrotation
		JOINT spine_2
		{
			OFFSET	0	112	-10
			CHANNELS 3  Xrotation Yrotation Zrotation
			JOINT spine_3
			{
				OFFSET	0	206.5	19.3
				CHANNELS 3  Xrotation Yrotation Zrotation
				JOINT spine_4
				{
					OFFSET	0	110.4	14.6
					CHANNELS 3  Xrotation Yrotation Zrotation
					JOINT neck_1
					{
						OFFSET	0	71.8	-50.3
						CHANNELS 3  Xrotation Yrotation Zrotation
						JOINT neck_2
						{
							OFFSET	0	86.2	-25.8
							CHANNELS 3  Xrotation Yrotation Zrotation
							JOINT head_ee
							{
								OFFSET	0	179.8	-8.7
								CHANNELS 3  Xrotation Yrotation Zrotation
								End Site
								{
									OFFSET	1	0	0
								}
							}
						}
					}
					JOINT left_clavicle
					{
						OFFSET	-43.2	22.4	-70.8
						CHANNELS 3  Xrotation Yrotation Zrotation
						JOINT left_shoulder
						{
							OFFSET	-93.9	-5.79999	48.7
							CHANNELS 3  Xrotation Yrotation Zrotation
							JOINT left_elbow
							{
								OFFSET	-291.4	-30.8	15.2
								CHANNELS 3  Xrotation Yrotation Zrotation
								JOINT left_lowarm_twist
								{
									OFFSET	-110.7	-3.89999	13.6
									CHANNELS 3  Xrotation Yrotation Zrotation
									JOINT left_hand
									{
										OFFSET	-110.7	-3.89999	13.6
										CHANNELS 3  Xrotation Yrotation Zrotation
										JOINT left_ee
										{
											OFFSET	-80.8	-5.10001	12.1
											CHANNELS 3  Xrotation Yrotation Zrotation
											End Site
											{
												OFFSET	1	0	0
											}
										}
									}
								}
							}
						}
					}
					JOINT right_clavicle
					{
						OFFSET	43.2	22.4	-70.8
						CHANNELS 3  Xrotation Yrotation Zrotation
						JOINT right_shoulder
						{
							OFFSET	93.9	-5.79999	48.7
							CHANNELS 3  Xrotation Yrotation Zrotation
							JOINT right_elbow
							{
								OFFSET	291.4	-30.8	15.2
								CHANNELS 3  Xrotation Yrotation Zrotation
								JOINT right_lowarm_twist
								{
									OFFSET	110.7	-3.89999	13.6
									CHANNELS 3  Xrotation Yrotation Zrotation
									JOINT right_hand
									{
										OFFSET	110.7	-3.89999	13.6
										CHANNELS 3  Xrotation Yrotation Zrotation
										JOINT right_ee
										{
											OFFSET	80.8	-5.10001	12.1
											CHANNELS 3  Xrotation Yrotation Zrotation
											End Site
											{
												OFFSET	1	0	0
											}
										}
									}
								}
							}
						}
					}
				}
			}
		}
	}
	JOINT left_hip
	{
		OFFSET	-82.8	-127.5	0.300001
		CHANNELS 3  Xrotation Yrotation Zrotation
		JOINT left_knee
		{
			OFFSET	-28.2	-396.7	2.2
			CHANNELS 3  Xrotation Yrotation Zrotation
			JOINT left_ankle
			{
				OFFSET	-11.7	-411.3	35.4
				CHANNELS 3  Xrotation Yrotation Zrotation
				JOINT left_toes
				{
					OFFSET	0	-60	-88.6
					CHANNELS 3  Xrotation Yrotation Zrotation
					JOINT left_foot_ee
					{
						OFFSET	-22.5	-16.5	-42.2
						CHANNELS 3  Xrotation Yrotation Zrotation
						End Site
						{
							OFFSET	1	0	0
						}
					}
				}
			}
		}
	}
	JOINT right_hip
	{
		OFFSET	82.8	-127.5	0.300001
		CHANNELS 3  Xrotation Yrotation Zrotation
		JOINT right_knee
		{
			OFFSET	28.2	-396.7	2.2
			CHANNELS 3  Xrotation Yrotation Zrotation
			JOINT right_ankle
			{
				OFFSET	11.7	-411.3	35.4
				CHANNELS 3  Xrotation Yrotation Zrotation
				JOINT right_toes
				{
					OFFSET	0	-60	-88.6
					CHANNELS 3  Xrotation Yrotation Zrotation
					JOINT right_foot_ee
					{
						OFFSET	22.5	-16.5	-42.2
						CHANNELS 3  Xrotation Yrotation Zrotation
						End Site
						{
							OFFSET	1	0	0
						}
					}
				}
			}
		}
	}
}
MOTION
Frames: 13
Frame Time: 0.02
1146.97 745.992 -630.351 162.952 -56.5354 174.84 -6.78109 -0.105894 -1.30255 -6.78014 -0.0228027 -1.30664 -6.77765 0.401957 -1.2435 -6.77975 0.200542 -1.29137 -14.1697 16.1196 9.56896 -14.4037 25.0347 14.238 -0.0 0.0 -0.0 8.10589 6.00576 15.6011 12.1332 -14.295 48.7959 1.53627 -37.2693 0.518073 -76.0689 -7.32137 5.31538 -0.970144 23.7815 3.89711 -0.0 0.0 -0.0 9.27397 25.2726 -17.32 -3.97383 10.0172 -58.3967 0.533895 14.8143 -0.0694092 84.5354 4.37098 8.84448 -4.19783 -25.4388 13.648 0.0 0.0 0.0 14.4892 64.7481 -21.7887 7.78009 -0.397599 -1.12622 12.4412 -23.6178 -2.05168 2.26666 -0.0 -0.0 -0.0 0.0 -0.0 26.6681 33.1961 -23.7134 -32.2348 0.0480023 -4.88202 10.1774 -0.257156 1.45858 -15.5358 0.0 0.0 0.0 0.0 0.0 
1163.75 746.196 -633.683 162.02 -55.1554 173.27 -6.77558 -0.119758 -1.19466 -6.77478 -0.0435017 -1.19985 -6.77217 0.347638 -1.14922 -6.77397 0.161791 -1.18969 -13.9335 16.9616 10.0997 -14.1719 26.2742 14.956 -0.0 0.0 -0.0 7.996 5.49677 15.415 12.1881 -14.7782 48.3589 1.58515 -38.1374 0.547968 -76.1563 -7.33252 5.31496 -1.11951 23.8001 3.05105 -0.0 0.0 -0.0 8.92953 25.116 -16.5705 -4.44823 9.83799 -58.5928 0.519114 14.4215 -0.0656789 84.6263 4.38184 8.84876 -4.26585 -26.3107 13.4697 0.0 0.0 0.0 12.592 64.009 -20.8985 6.3285 -0.311834 -0.920268 13.3461 -24.6939 -2.21742 3.32889 -0.0 -0.0 -0.0 0.0 -0.0 26.6918 33.2712 -23.5533 -29.755 -0.053374 -4.51499 7.29177 4.0336 1.06948 -16.2777 0.0 0.0 0.0 0.0 0.0 
1176.24 742.685 -635.866 161.075 -54.6807 172.04 -6.73722 -0.149349 -1.09967 -6.73655 -0.0790755 -1.10694 -6.73351 0.283141 -1.07304 -6.7351 0.110132 -1.10429 -13.6227 18.1436 10.914 -13.8581 27.9691 16.0227 -0.0 0.0 -0.0 7.53523 5.42097 14.5415 12.1445 -15.3577 47.6094 1.6603 -39.433 0.59505 -76.2952 -7.35026 5.31427 -1.33643 23.8154 1.81913 -0.0 0.0 -0.0 8.66441 24.8066 -16.0137 -5.11215 9.56465 -58.8894 0.510264 14.1857 -0.0634926 84.778 4.39996 8.85584 -4.36189 -27.5207 13.2139 0.0 0.0 0.0 8.58027 63.205 -18.911 3.45547 -0.157642 -0.506683 14.6191 -26.2306 -2.45658 4.85722 -0.0 -0.0 -0.0 0.0 -0.0 28.0101 32.8507 -23.8576 -25.0798 -0.200866 -3.81285 3.58933 9.79338 0.54737 -17.2998 0.0 0.0 0.0 0.0 0.0 
1187.62 745.979 -635.107 160.912 -54.1246 172.366 -6.64542 -0.140659 -1.09484 -6.64476 -0.0707114 -1.10157 -6.64193 0.287615 -1.06571 -6.6435 0.115707 -1.09775 -14.1517 18.7063 11.4913 -14.4365 28.8505 16.8919 -0.0 0.0 -0.0 7.4058 5.46584 14.2948 12.3025 -16.2044 47.2132 1.78813 -41.5302 0.678048 -76.6943 -7.40118 5.31203 -1.46501 24.2914 1.30081 -0.0 0.0 -0.0 8.47774 24.4169 -15.6386 -5.95104 9.31342 -59.5185 0.499758 13.9051 -0.0609427 84.9334 4.41856 8.86306 -4.41266 -28.3938 12.913 0.0 0.0 0.0 6.17673 63.0626 -17.7971 2.1905 -0.0963825 -0.322286 16.1318 -26.6775 -2.70439 5.73624 -0.0 -0.0 -0.0 0.0 -0.0 28.1756 33.1051 -24.0246 -20.9169 -0.283613 -3.17953 3.70409 11.9902 0.572234 -18.3184 0.0 0.0 0.0 0.0 0.0 
1200.39 739.214 -632.455 161.074 -53.0317 172.466 -6.51093 -0.138613 -1.16079 -6.51018 -0.0644732 -1.16726 -6.50726 0.312023 -1.12663 -6.50901 0.130189 -1.16176 -15.5429 18.8102 12.3877 -15.8951 28.9183 18.1445 -0.0 0.0 -0.0 7.44767 5.62715 14.3689 12.6714 -16.5986 46.7447 1.89961 -43.2548 0.753219 -77.2619 -7.47356 5.30823 -1.6889 25.4268 0.559059 -0.0 0.0 -0.0 8.26966 24.0244 -15.2164 -6.52918 9.19108 -60.5391 0.500658 13.9291 -0.0611593 85.0154 4.42837 8.86684 -4.44522 -29.2359 12.5242 0.0 0.0 0.0 4.92544 62.5387 -17.6171 2.10449 -0.0923654 -0.309702 18.238 -27.3069 -3.04627 6.39697 -0.0 -0.0 -0.0 0.0 -0.0 27.8795 33.5584 -23.9602 -16.0373 -0.321776 -2.43204 3.42849 14.3718 0.538832 -19.7745 0.0 0.0 0.0 0.0 0.0 
1212.38 737.585 -629.648 160.763 -52.152 172.433 -6.49547 -0.103537 -1.27187 -6.49458 -0.0224018 -1.27588 -6.49225 0.386308 -1.21621 -6.49426 0.189399 -1.26195 -16.0121 18.7564 12.2581 -16.4269 29.0219 18.1527 -0.0 0.0 -0.0 7.50194 6.27842 14.4486 12.8586 -16.627 45.9662 1.97397 -44.3534 0.804695 -77.9168 -7.557 5.30294 -1.8289 26.5573 0.310253 -0.0 0.0 -0.0 8.06928 23.5554 -14.8182 -6.83458 9.12884 -61.1425 0.504256 14.0253 -0.0620284 85.1319 4.44233 8.8722 -4.40285 -29.0165 12.4386 0.0 0.0 0.0 3.48099 62.0748 -17.7602 2.04466 -0.0895825 -0.300944 20.1876 -27.7312 -3.35236 7.20059 -0.0 -0.0 -0.0 0.0 -0.0 27.9196 33.6156 -23.748 -13.705 -0.317509 -2.07424 2.86797 15.1934 0.454281 -21.248 0.0 0.0 0.0 0.0 0.0 
1223.22 737.592 -627.82 161.006 -51.4694 172.244 -6.45107 -0.094714 -1.20548 -6.45026 -0.0178201 -1.20906 -6.44826 0.368417 -1.15171 -6.45007 0.181917 -1.19543 -16.8519 18.5998 12.1364 -17.3596 29.0172 18.2441 -0.0 0.0 -0.0 7.75489 7.24016 14.8823 13.3768 -16.8959 45.3136 2.085 -45.9201 0.883393 -78.8519 -7.67601 5.29373 -2.00894 28.1078 0.0664767 -0.0 0.0 -0.0 7.75796 22.8839 -14.194 -7.24603 9.09712 -61.9419 0.512489 14.245 -0.0640388 85.2975 4.46218 8.87976 -4.32716 -28.5568 12.3273 0.0 0.0 0.0 0.278368 61.8124 -15.8807 1.66118 -0.0719617 -0.244742 22.7965 -28.336 -3.75484 8.26704 -0.0 -0.0 -0.0 0.0 -0.0 29.1743 33.096 -24.9349 -10.3734 -0.286171 -1.56409 2.12202 16.1991 0.339524 -23.3522 0.0 0.0 0.0 0.0 0.0 
1238.08 730.771 -621.303 160.588 -50.6486 172.065 -6.40046 -0.157868 -1.34528 -6.39945 -0.0719527 -1.3526 -6.39563 0.361653 -1.30535 -6.39798 0.150979 -1.34607 -17.8449 18.6162 13.0776 -18.3581 28.805 19.3933 -0.0 0.0 -0.0 7.64899 8.61397 14.62 13.8334 -17.1297 44.3113 2.23701 -47.9303 0.994455 -79.8343 -7.80081 5.28194 -2.0749 28.229 -0.231626 -0.0 0.0 -0.0 7.39045 22.3963 -13.4302 -8.1872 8.95367 -62.9511 0.512131 14.2355 -0.0639509 85.3063 4.46324 8.88016 -4.24544 -28.1435 12.1462 0.0 0.0 0.0 -0.633537 61.9805 -15.7041 0.812169 -0.0342946 -0.119912 24.3203 -29.0005 -4.00044 8.85048 -0.0 -0.0 -0.0 0.0 -0.0 29.2098 33.1872 -25.0814 -8.20756 -0.249911 -1.23375 0.0741239 16.3334 0.011942 -24.1724 0.0 0.0 0.0 0.0 0.0 
1252.53 727.186 -619.644 160.721 -50.3458 172.115 -6.35414 -0.147203 -1.41831 -6.35302 -0.0566628 -1.42481 -6.34931 0.398002 -1.36927 -6.35188 0.176779 -1.41493 -18.3732 18.6482 13.3531 -18.9208 28.8658 19.8204 -0.0 0.0 -0.0 8.01682 10.7297 15.1617 13.8628 -17.3286 44.8424 2.4757 -50.7982 1.17564 -81.2643 -7.98201 5.26093 -2.17182 28.4398 -0.651487 -0.0 0.0 -0.0 7.38852 22.1675 -13.4462 -8.31399 8.81677 -63.1418 0.479193 13.3538 -0.0560967 85.3161 4.46442 8.8806 -4.22296 -28.4241 11.8363 0.0 0.0 0.0 -1.87527 62.2142 -15.6068 -0.401483 0.0163232 0.0594495 26.4241 -29.866 -4.3339 9.1884 -0.0 -0.0 -0.0 0.0 -0.0 28.9162 33.2853 -24.4587 -5.31189 -0.181972 -0.794618 -2.8026 16.4481 -0.455261 -24.929 0.0 0.0 0.0 0.0 0.0 
1263.21 725.805 -613.892 160.234 -49.8656 171.804 -6.37886 -0.128794 -1.51433 -6.37759 -0.0321836 -1.51945 -6.37416 0.451875 -1.45108 -6.37704 0.217061 -1.50421 -19.0774 18.6919 13.6967 -19.6751 28.9648 20.3738 -0.0 0.0 -0.0 8.59761 13.7898 15.9338 14.0113 -17.6141 45.8567 2.86972 -54.8652 1.48982 -83.3075 -8.23972 5.22301 -2.30059 28.7419 -1.19382 -0.0 0.0 -0.0 7.41432 21.8709 -13.5287 -8.42475 8.64418 -63.4368 0.433142 12.1103 -0.0459469 85.3045 4.46302 8.88007 -4.19381 -28.825 11.4119 0.0 0.0 0.0 -3.72026 62.5708 -15.559 -2.12936 0.0817998 0.316528 29.4264 -31.1155 -4.80326 9.67219 -0.0 -0.0 -0.0 0.0 -0.0 29.4668 32.9726 -23.9762 -1.04695 -0.0416908 -0.155258 -6.91625 16.5829 -1.13451 -26.0079 0.0 0.0 0.0 0.0 0.0 
1275.73 728.779 -616.427 161.247 -49.9005 172.136 -6.14605 -0.107393 -1.63623 -6.14456 -0.00307177 -1.63975 -6.14163 0.51138 -1.55799 -6.14493 0.25894 -1.61918 -19.5753 18.3943 13.989 -20.1445 28.3744 20.6521 -0.0 0.0 -0.0 8.9742 14.6253 16.4983 14.2093 -17.681 45.8895 2.93721 -55.489 1.54522 -83.4576 -8.25859 5.21986 -2.35704 28.5373 -1.60103 -0.0 0.0 -0.0 7.28196 21.6449 -13.258 -8.40932 8.60827 -63.8431 0.408463 11.439 -0.0409108 85.2773 4.45976 8.87884 -4.19922 -28.6606 11.5495 0.0 0.0 0.0 -4.99744 62.8963 -14.8833 -3.39652 0.124868 0.506227 30.0117 -31.236 -4.8857 9.99837 -0.0 -0.0 -0.0 0.0 -0.0 29.4855 33.0037 -23.7145 -1.20882 -0.0478828 -0.179326 -6.86461 16.4238 -1.12446 -26.3191 0.0 0.0 0.0 0.0 0.0 
1286.55 726.137 -614.947 160.609 -49.6838 171.006 -6.13954 -0.0890545 -1.61812 -6.13808 0.0140774 -1.62051 -6.13575 0.521474 -1.5344 -6.13893 0.272633 -1.59748 -20.2624 17.9764 14.3953 -20.7863 27.5484 21.0294 -0.0 0.0 -0.0 9.4558 15.8284 17.1795 14.3563 -17.731 45.8495 3.01973 -56.2257 1.61352 -83.6699 -8.28526 5.21531 -2.42718 28.2067 -2.14858 -0.0 0.0 -0.0 7.04497 21.2059 -12.7768 -8.71945 8.45035 -64.3068 0.367722 10.3239 -0.0332194 85.1832 4.44847 8.87455 -4.2096 -28.3862 11.787 0.0 0.0 0.0 -6.08937 63.2795 -14.1376 -4.79436 0.167495 0.716514 30.7922 -31.4033 -4.99491 10.4356 -0.0 -0.0 -0.0 0.0 -0.0 29.8358 32.8809 -23.5101 -1.44075 -0.0566361 -0.213844 -6.79043 16.2482 -1.11057 -26.7604 0.0 0.0 0.0 0.0 0.0 
1299.92 721.604 -612.536 160.344 -49.5301 170.362 -6.05829 -0.0604522 -1.64545 -6.05678 0.0443603 -1.64596 -6.05534 0.556051 -1.54985 -6.05857 0.304336 -1.6182 -21.1135 17.5682 14.9279 -21.5906 26.7313 21.5682 -0.0 0.0 -0.0 9.64614 15.9202 17.4927 14.5389 -18.0056 45.8637 3.09426 -56.8676 1.67571 -83.9306 -8.31798 5.2096 -2.55869 28.2018 -2.86343 -0.0 0.0 -0.0 6.78177 21.1547 -12.206 -8.85926 8.33501 -64.6358 0.348457 9.79381 -0.0298544 85.1444 4.44382 8.87277 -4.25821 -28.5449 11.9524 0.0 0.0 0.0 -7.35856 63.7855 -13.1631 -6.61731 0.215349 0.992168 31.9017 -31.6412 -5.14792 11.0547 -0.0 -0.0 -0.0 0.0 -0.0 29.9505 32.6309 -23.421 -1.96793 -0.0760116 -0.29243 -7.18768 15.7747 -1.17194 -27.223 0.0 0.0 0.0 0.0 0.0 
